<?xml version="1.0" encoding="UTF-8" standalone="no"?>
<!-- Created with Inkscape (http://www.inkscape.org/) -->
<svg
   xmlns:dc="http://purl.org/dc/elements/1.1/"
   xmlns:cc="http://web.resource.org/cc/"
   xmlns:rdf="http://www.w3.org/1999/02/22-rdf-syntax-ns#"
   xmlns:svg="http://www.w3.org/2000/svg"
   xmlns="http://www.w3.org/2000/svg"
   xmlns:sodipodi="http://sodipodi.sourceforge.net/DTD/sodipodi-0.dtd"
   xmlns:inkscape="http://www.inkscape.org/namespaces/inkscape"
   width="64px"
   height="64px"
   id="svg2158"
   sodipodi:version="0.32"
   inkscape:version="0.45"
   sodipodi:docname="flower-1.svg"
   sodipodi:docbase="/home/mark/projects/questar/trunk/data/tileset"
   inkscape:output_extension="org.inkscape.output.svg.inkscape"
   sodipodi:modified="true">
  <defs
     id="defs2160" />
  <sodipodi:namedview
     id="base"
     pagecolor="#ffffff"
     bordercolor="#666666"
     borderopacity="1.0"
     inkscape:pageopacity="0.0"
     inkscape:pageshadow="2"
     inkscape:zoom="11.079848"
     inkscape:cx="22.392729"
     inkscape:cy="15.137217"
     inkscape:current-layer="layer1"
     showgrid="true"
     inkscape:document-units="px"
     inkscape:grid-bbox="true"
     inkscape:window-width="922"
     inkscape:window-height="628"
     inkscape:window-x="31"
     inkscape:window-y="63" />
  <metadata
     id="metadata2163">
    <rdf:RDF>
      <cc:Work
         rdf:about="">
        <dc:format>image/svg+xml</dc:format>
        <dc:type
           rdf:resource="http://purl.org/dc/dcmitype/StillImage" />
      </cc:Work>
    </rdf:RDF>
  </metadata>
  <g
     id="layer1"
     inkscape:label="Layer 1"
     inkscape:groupmode="layer">
    <path
       style="fill:#73d216;fill-opacity:1;fill-rule:evenodd;stroke:none;stroke-width:1px;stroke-linecap:butt;stroke-linejoin:miter;stroke-opacity:1"
       d="M 18.208872,44.999996 L 19.836252,44.999996 C 19.836252,44.999996 19.204682,51.874177 18.836252,52.525992 C 18.479016,53.158 17.665327,53.158 17.208872,52.525992 C 16.738906,51.875273 18.208872,44.999996 18.208872,44.999996 z "
       id="path9224"
       sodipodi:nodetypes="cczzc" />
    <g
       id="g10219"
       transform="translate(2.9999994,23.999996)">
      <path
         sodipodi:type="arc"
         style="fill:#edd400;fill-rule:evenodd;stroke:none;stroke-width:1.67796612px;stroke-linecap:butt;stroke-linejoin:miter;stroke-opacity:1"
         id="path9226"
         sodipodi:cx="28.454546"
         sodipodi:cy="33"
         sodipodi:rx="9"
         sodipodi:ry="9"
         d="M 37.454546 33 A 9 9 0 1 1  19.454546,33 A 9 9 0 1 1  37.454546 33 z"
         transform="matrix(0.1331801,0.1331801,-0.1331801,0.1331801,16.605365,11.815477)" />
      <path
         inkscape:transform-center-x="11.212948"
         id="path9228"
         d="M 14.754942,16.335817 C 14.16079,15.741665 13.452544,15.257302 12.836865,15.080779 C 11.605507,14.727732 10.725581,15.607658 11.078627,16.839016 C 11.431674,18.070374 13.014464,19.653164 14.245822,20.006211 C 14.312982,20.025467 14.382185,20.041499 14.447102,20.053571 C 14.39184,19.626629 14.527854,19.17954 14.855581,18.851813 C 15.183309,18.524085 15.624477,18.393992 16.051419,18.449253 C 16.039347,18.384337 16.023315,18.315133 16.00406,18.247974 C 15.827536,17.632295 15.349093,16.929969 14.754942,16.335817 z "
         style="fill:#fce94f;fill-rule:evenodd;stroke:none;stroke-width:4.14943838px;stroke-linecap:butt;stroke-linejoin:miter;stroke-opacity:1" />
      <path
         style="fill:#fce94f;fill-rule:evenodd;stroke:none;stroke-width:4.14943838px;stroke-linecap:butt;stroke-linejoin:miter;stroke-opacity:1"
         d="M 17.24506,23.664182 C 17.839211,24.258333 18.547457,24.742696 19.163136,24.91922 C 20.394494,25.272266 21.27442,24.39234 20.921374,23.160982 C 20.568327,21.929624 18.985537,20.346834 17.754179,19.993787 C 17.687019,19.974532 17.617816,19.9585 17.552899,19.946427 C 17.608161,20.37337 17.472147,20.820458 17.14442,21.148185 C 16.816692,21.475913 16.375524,21.606007 15.948582,21.550745 C 15.960654,21.615662 15.976686,21.684865 15.995941,21.752025 C 16.172465,22.367704 16.650908,23.07003 17.24506,23.664182 z "
         id="path9230"
         inkscape:transform-center-x="-11.212948" />
      <path
         inkscape:transform-center-y="-11.212948"
         id="path9232"
         d="M 19.664183,18.75494 C 20.258335,18.160789 20.742698,17.452542 20.919221,16.836863 C 21.272267,15.605505 20.392342,14.72558 19.160984,15.078626 C 17.929626,15.431673 16.346836,17.014463 15.993789,18.245821 C 15.974533,18.312981 15.958501,18.382184 15.946429,18.447101 C 16.373371,18.391839 16.820459,18.527853 17.148187,18.85558 C 17.475915,19.183308 17.606008,19.624476 17.550746,20.051418 C 17.615663,20.039346 17.684866,20.023314 17.752026,20.004058 C 18.367705,19.827535 19.070031,19.349092 19.664183,18.75494 z "
         style="fill:#fce94f;fill-rule:evenodd;stroke:none;stroke-width:4.14943838px;stroke-linecap:butt;stroke-linejoin:miter;stroke-opacity:1" />
      <path
         style="fill:#fce94f;fill-rule:evenodd;stroke:none;stroke-width:4.14943838px;stroke-linecap:butt;stroke-linejoin:miter;stroke-opacity:1"
         d="M 12.335818,21.245058 C 11.741667,21.83921 11.257304,22.547456 11.08078,23.163135 C 10.727734,24.394493 11.60766,25.274419 12.839018,24.921372 C 14.070376,24.568326 15.653166,22.985535 16.006213,21.754177 C 16.025468,21.687018 16.0415,21.617814 16.053572,21.552898 C 15.62663,21.608159 15.179542,21.472146 14.851814,21.144418 C 14.524087,20.816691 14.393993,20.375522 14.449255,19.94858 C 14.384338,19.960652 14.315135,19.976685 14.247975,19.99594 C 13.632296,20.172463 12.92997,20.650906 12.335818,21.245058 z "
         id="path9234"
         inkscape:transform-center-y="11.212948" />
    </g>
    <path
       sodipodi:nodetypes="cczzc"
       id="path10237"
       d="M 13.208873,17 L 14.836253,17 C 14.836253,17 14.204683,23.874181 13.836253,24.525996 C 13.479017,25.158004 12.665328,25.158004 12.208873,24.525996 C 11.738907,23.875277 13.208873,17 13.208873,17 z "
       style="fill:#73d216;fill-opacity:1;fill-rule:evenodd;stroke:none;stroke-width:1px;stroke-linecap:butt;stroke-linejoin:miter;stroke-opacity:1" />
    <g
       id="g10239"
       transform="translate(-2.0000004,-3.9999996)">
      <path
         transform="matrix(0.1331801,0.1331801,-0.1331801,0.1331801,16.605365,11.815477)"
         d="M 37.454546 33 A 9 9 0 1 1  19.454546,33 A 9 9 0 1 1  37.454546 33 z"
         sodipodi:ry="9"
         sodipodi:rx="9"
         sodipodi:cy="33"
         sodipodi:cx="28.454546"
         id="path10241"
         style="fill:#edd400;fill-rule:evenodd;stroke:none;stroke-width:1.67796612px;stroke-linecap:butt;stroke-linejoin:miter;stroke-opacity:1"
         sodipodi:type="arc" />
      <path
         style="fill:#fce94f;fill-rule:evenodd;stroke:none;stroke-width:4.14943838px;stroke-linecap:butt;stroke-linejoin:miter;stroke-opacity:1"
         d="M 14.754942,16.335817 C 14.16079,15.741665 13.452544,15.257302 12.836865,15.080779 C 11.605507,14.727732 10.725581,15.607658 11.078627,16.839016 C 11.431674,18.070374 13.014464,19.653164 14.245822,20.006211 C 14.312982,20.025467 14.382185,20.041499 14.447102,20.053571 C 14.39184,19.626629 14.527854,19.17954 14.855581,18.851813 C 15.183309,18.524085 15.624477,18.393992 16.051419,18.449253 C 16.039347,18.384337 16.023315,18.315133 16.00406,18.247974 C 15.827536,17.632295 15.349093,16.929969 14.754942,16.335817 z "
         id="path10243"
         inkscape:transform-center-x="11.212948" />
      <path
         inkscape:transform-center-x="-11.212948"
         id="path10245"
         d="M 17.24506,23.664182 C 17.839211,24.258333 18.547457,24.742696 19.163136,24.91922 C 20.394494,25.272266 21.27442,24.39234 20.921374,23.160982 C 20.568327,21.929624 18.985537,20.346834 17.754179,19.993787 C 17.687019,19.974532 17.617816,19.9585 17.552899,19.946427 C 17.608161,20.37337 17.472147,20.820458 17.14442,21.148185 C 16.816692,21.475913 16.375524,21.606007 15.948582,21.550745 C 15.960654,21.615662 15.976686,21.684865 15.995941,21.752025 C 16.172465,22.367704 16.650908,23.07003 17.24506,23.664182 z "
         style="fill:#fce94f;fill-rule:evenodd;stroke:none;stroke-width:4.14943838px;stroke-linecap:butt;stroke-linejoin:miter;stroke-opacity:1" />
      <path
         style="fill:#fce94f;fill-rule:evenodd;stroke:none;stroke-width:4.14943838px;stroke-linecap:butt;stroke-linejoin:miter;stroke-opacity:1"
         d="M 19.664183,18.75494 C 20.258335,18.160789 20.742698,17.452542 20.919221,16.836863 C 21.272267,15.605505 20.392342,14.72558 19.160984,15.078626 C 17.929626,15.431673 16.346836,17.014463 15.993789,18.245821 C 15.974533,18.312981 15.958501,18.382184 15.946429,18.447101 C 16.373371,18.391839 16.820459,18.527853 17.148187,18.85558 C 17.475915,19.183308 17.606008,19.624476 17.550746,20.051418 C 17.615663,20.039346 17.684866,20.023314 17.752026,20.004058 C 18.367705,19.827535 19.070031,19.349092 19.664183,18.75494 z "
         id="path10247"
         inkscape:transform-center-y="-11.212948" />
      <path
         inkscape:transform-center-y="11.212948"
         id="path10249"
         d="M 12.335818,21.245058 C 11.741667,21.83921 11.257304,22.547456 11.08078,23.163135 C 10.727734,24.394493 11.60766,25.274419 12.839018,24.921372 C 14.070376,24.568326 15.653166,22.985535 16.006213,21.754177 C 16.025468,21.687018 16.0415,21.617814 16.053572,21.552898 C 15.62663,21.608159 15.179542,21.472146 14.851814,21.144418 C 14.524087,20.816691 14.393993,20.375522 14.449255,19.94858 C 14.384338,19.960652 14.315135,19.976685 14.247975,19.99594 C 13.632296,20.172463 12.92997,20.650906 12.335818,21.245058 z "
         style="fill:#fce94f;fill-rule:evenodd;stroke:none;stroke-width:4.14943838px;stroke-linecap:butt;stroke-linejoin:miter;stroke-opacity:1" />
    </g>
    <path
       style="fill:#73d216;fill-opacity:1;fill-rule:evenodd;stroke:none;stroke-width:1px;stroke-linecap:butt;stroke-linejoin:miter;stroke-opacity:1"
       d="M 35.208872,27.999999 L 36.836252,27.999999 C 36.836252,27.999999 36.204682,34.874179 35.836252,35.525994 C 35.479016,36.158002 34.665327,36.158002 34.208872,35.525994 C 33.738906,34.875276 35.208872,27.999999 35.208872,27.999999 z "
       id="path10253"
       sodipodi:nodetypes="cczzc" />
    <g
       id="g10255"
       transform="translate(19.999999,6.9999985)">
      <path
         sodipodi:type="arc"
         style="fill:#edd400;fill-rule:evenodd;stroke:none;stroke-width:1.67796612px;stroke-linecap:butt;stroke-linejoin:miter;stroke-opacity:1"
         id="path10257"
         sodipodi:cx="28.454546"
         sodipodi:cy="33"
         sodipodi:rx="9"
         sodipodi:ry="9"
         d="M 37.454546 33 A 9 9 0 1 1  19.454546,33 A 9 9 0 1 1  37.454546 33 z"
         transform="matrix(0.1331801,0.1331801,-0.1331801,0.1331801,16.605365,11.815477)" />
      <path
         inkscape:transform-center-x="11.212948"
         id="path10259"
         d="M 14.754942,16.335817 C 14.16079,15.741665 13.452544,15.257302 12.836865,15.080779 C 11.605507,14.727732 10.725581,15.607658 11.078627,16.839016 C 11.431674,18.070374 13.014464,19.653164 14.245822,20.006211 C 14.312982,20.025467 14.382185,20.041499 14.447102,20.053571 C 14.39184,19.626629 14.527854,19.17954 14.855581,18.851813 C 15.183309,18.524085 15.624477,18.393992 16.051419,18.449253 C 16.039347,18.384337 16.023315,18.315133 16.00406,18.247974 C 15.827536,17.632295 15.349093,16.929969 14.754942,16.335817 z "
         style="fill:#fce94f;fill-rule:evenodd;stroke:none;stroke-width:4.14943838px;stroke-linecap:butt;stroke-linejoin:miter;stroke-opacity:1" />
      <path
         style="fill:#fce94f;fill-rule:evenodd;stroke:none;stroke-width:4.14943838px;stroke-linecap:butt;stroke-linejoin:miter;stroke-opacity:1"
         d="M 17.24506,23.664182 C 17.839211,24.258333 18.547457,24.742696 19.163136,24.91922 C 20.394494,25.272266 21.27442,24.39234 20.921374,23.160982 C 20.568327,21.929624 18.985537,20.346834 17.754179,19.993787 C 17.687019,19.974532 17.617816,19.9585 17.552899,19.946427 C 17.608161,20.37337 17.472147,20.820458 17.14442,21.148185 C 16.816692,21.475913 16.375524,21.606007 15.948582,21.550745 C 15.960654,21.615662 15.976686,21.684865 15.995941,21.752025 C 16.172465,22.367704 16.650908,23.07003 17.24506,23.664182 z "
         id="path10261"
         inkscape:transform-center-x="-11.212948" />
      <path
         inkscape:transform-center-y="-11.212948"
         id="path10263"
         d="M 19.664183,18.75494 C 20.258335,18.160789 20.742698,17.452542 20.919221,16.836863 C 21.272267,15.605505 20.392342,14.72558 19.160984,15.078626 C 17.929626,15.431673 16.346836,17.014463 15.993789,18.245821 C 15.974533,18.312981 15.958501,18.382184 15.946429,18.447101 C 16.373371,18.391839 16.820459,18.527853 17.148187,18.85558 C 17.475915,19.183308 17.606008,19.624476 17.550746,20.051418 C 17.615663,20.039346 17.684866,20.023314 17.752026,20.004058 C 18.367705,19.827535 19.070031,19.349092 19.664183,18.75494 z "
         style="fill:#fce94f;fill-rule:evenodd;stroke:none;stroke-width:4.14943838px;stroke-linecap:butt;stroke-linejoin:miter;stroke-opacity:1" />
      <path
         style="fill:#fce94f;fill-rule:evenodd;stroke:none;stroke-width:4.14943838px;stroke-linecap:butt;stroke-linejoin:miter;stroke-opacity:1"
         d="M 12.335818,21.245058 C 11.741667,21.83921 11.257304,22.547456 11.08078,23.163135 C 10.727734,24.394493 11.60766,25.274419 12.839018,24.921372 C 14.070376,24.568326 15.653166,22.985535 16.006213,21.754177 C 16.025468,21.687018 16.0415,21.617814 16.053572,21.552898 C 15.62663,21.608159 15.179542,21.472146 14.851814,21.144418 C 14.524087,20.816691 14.393993,20.375522 14.449255,19.94858 C 14.384338,19.960652 14.315135,19.976685 14.247975,19.99594 C 13.632296,20.172463 12.92997,20.650906 12.335818,21.245058 z "
         id="path10265"
         inkscape:transform-center-y="11.212948" />
    </g>
    <path
       sodipodi:nodetypes="cczzc"
       id="path10269"
       d="M 52.208873,22 L 53.836253,22 C 53.836253,22 53.204683,28.874181 52.836253,29.525996 C 52.479017,30.158004 51.665328,30.158004 51.208873,29.525996 C 50.738907,28.875277 52.208873,22 52.208873,22 z "
       style="fill:#73d216;fill-opacity:1;fill-rule:evenodd;stroke:none;stroke-width:1px;stroke-linecap:butt;stroke-linejoin:miter;stroke-opacity:1" />
    <g
       id="g10271"
       transform="translate(37,1.0000004)">
      <path
         transform="matrix(0.1331801,0.1331801,-0.1331801,0.1331801,16.605365,11.815477)"
         d="M 37.454546 33 A 9 9 0 1 1  19.454546,33 A 9 9 0 1 1  37.454546 33 z"
         sodipodi:ry="9"
         sodipodi:rx="9"
         sodipodi:cy="33"
         sodipodi:cx="28.454546"
         id="path10273"
         style="fill:#edd400;fill-rule:evenodd;stroke:none;stroke-width:1.67796612px;stroke-linecap:butt;stroke-linejoin:miter;stroke-opacity:1"
         sodipodi:type="arc" />
      <path
         style="fill:#fce94f;fill-rule:evenodd;stroke:none;stroke-width:4.14943838px;stroke-linecap:butt;stroke-linejoin:miter;stroke-opacity:1"
         d="M 14.754942,16.335817 C 14.16079,15.741665 13.452544,15.257302 12.836865,15.080779 C 11.605507,14.727732 10.725581,15.607658 11.078627,16.839016 C 11.431674,18.070374 13.014464,19.653164 14.245822,20.006211 C 14.312982,20.025467 14.382185,20.041499 14.447102,20.053571 C 14.39184,19.626629 14.527854,19.17954 14.855581,18.851813 C 15.183309,18.524085 15.624477,18.393992 16.051419,18.449253 C 16.039347,18.384337 16.023315,18.315133 16.00406,18.247974 C 15.827536,17.632295 15.349093,16.929969 14.754942,16.335817 z "
         id="path10275"
         inkscape:transform-center-x="11.212948" />
      <path
         inkscape:transform-center-x="-11.212948"
         id="path10277"
         d="M 17.24506,23.664182 C 17.839211,24.258333 18.547457,24.742696 19.163136,24.91922 C 20.394494,25.272266 21.27442,24.39234 20.921374,23.160982 C 20.568327,21.929624 18.985537,20.346834 17.754179,19.993787 C 17.687019,19.974532 17.617816,19.9585 17.552899,19.946427 C 17.608161,20.37337 17.472147,20.820458 17.14442,21.148185 C 16.816692,21.475913 16.375524,21.606007 15.948582,21.550745 C 15.960654,21.615662 15.976686,21.684865 15.995941,21.752025 C 16.172465,22.367704 16.650908,23.07003 17.24506,23.664182 z "
         style="fill:#fce94f;fill-rule:evenodd;stroke:none;stroke-width:4.14943838px;stroke-linecap:butt;stroke-linejoin:miter;stroke-opacity:1" />
      <path
         style="fill:#fce94f;fill-rule:evenodd;stroke:none;stroke-width:4.14943838px;stroke-linecap:butt;stroke-linejoin:miter;stroke-opacity:1"
         d="M 19.664183,18.75494 C 20.258335,18.160789 20.742698,17.452542 20.919221,16.836863 C 21.272267,15.605505 20.392342,14.72558 19.160984,15.078626 C 17.929626,15.431673 16.346836,17.014463 15.993789,18.245821 C 15.974533,18.312981 15.958501,18.382184 15.946429,18.447101 C 16.373371,18.391839 16.820459,18.527853 17.148187,18.85558 C 17.475915,19.183308 17.606008,19.624476 17.550746,20.051418 C 17.615663,20.039346 17.684866,20.023314 17.752026,20.004058 C 18.367705,19.827535 19.070031,19.349092 19.664183,18.75494 z "
         id="path10279"
         inkscape:transform-center-y="-11.212948" />
      <path
         inkscape:transform-center-y="11.212948"
         id="path10281"
         d="M 12.335818,21.245058 C 11.741667,21.83921 11.257304,22.547456 11.08078,23.163135 C 10.727734,24.394493 11.60766,25.274419 12.839018,24.921372 C 14.070376,24.568326 15.653166,22.985535 16.006213,21.754177 C 16.025468,21.687018 16.0415,21.617814 16.053572,21.552898 C 15.62663,21.608159 15.179542,21.472146 14.851814,21.144418 C 14.524087,20.816691 14.393993,20.375522 14.449255,19.94858 C 14.384338,19.960652 14.315135,19.976685 14.247975,19.99594 C 13.632296,20.172463 12.92997,20.650906 12.335818,21.245058 z "
         style="fill:#fce94f;fill-rule:evenodd;stroke:none;stroke-width:4.14943838px;stroke-linecap:butt;stroke-linejoin:miter;stroke-opacity:1" />
    </g>
    <path
       style="fill:#73d216;fill-opacity:1;fill-rule:evenodd;stroke:none;stroke-width:1px;stroke-linecap:butt;stroke-linejoin:miter;stroke-opacity:1"
       d="M 53.208872,53.999998 L 54.836252,53.999998 C 54.836252,53.999998 54.204682,60.874179 53.836252,61.525994 C 53.479016,62.158002 52.665327,62.158002 52.208872,61.525994 C 51.738906,60.875275 53.208872,53.999998 53.208872,53.999998 z "
       id="path10285"
       sodipodi:nodetypes="cczzc" />
    <g
       id="g10287"
       transform="translate(37.999999,32.999998)">
      <path
         sodipodi:type="arc"
         style="fill:#edd400;fill-rule:evenodd;stroke:none;stroke-width:1.67796612px;stroke-linecap:butt;stroke-linejoin:miter;stroke-opacity:1"
         id="path10289"
         sodipodi:cx="28.454546"
         sodipodi:cy="33"
         sodipodi:rx="9"
         sodipodi:ry="9"
         d="M 37.454546 33 A 9 9 0 1 1  19.454546,33 A 9 9 0 1 1  37.454546 33 z"
         transform="matrix(0.1331801,0.1331801,-0.1331801,0.1331801,16.605365,11.815477)" />
      <path
         inkscape:transform-center-x="11.212948"
         id="path10291"
         d="M 14.754942,16.335817 C 14.16079,15.741665 13.452544,15.257302 12.836865,15.080779 C 11.605507,14.727732 10.725581,15.607658 11.078627,16.839016 C 11.431674,18.070374 13.014464,19.653164 14.245822,20.006211 C 14.312982,20.025467 14.382185,20.041499 14.447102,20.053571 C 14.39184,19.626629 14.527854,19.17954 14.855581,18.851813 C 15.183309,18.524085 15.624477,18.393992 16.051419,18.449253 C 16.039347,18.384337 16.023315,18.315133 16.00406,18.247974 C 15.827536,17.632295 15.349093,16.929969 14.754942,16.335817 z "
         style="fill:#fce94f;fill-rule:evenodd;stroke:none;stroke-width:4.14943838px;stroke-linecap:butt;stroke-linejoin:miter;stroke-opacity:1" />
      <path
         style="fill:#fce94f;fill-rule:evenodd;stroke:none;stroke-width:4.14943838px;stroke-linecap:butt;stroke-linejoin:miter;stroke-opacity:1"
         d="M 17.24506,23.664182 C 17.839211,24.258333 18.547457,24.742696 19.163136,24.91922 C 20.394494,25.272266 21.27442,24.39234 20.921374,23.160982 C 20.568327,21.929624 18.985537,20.346834 17.754179,19.993787 C 17.687019,19.974532 17.617816,19.9585 17.552899,19.946427 C 17.608161,20.37337 17.472147,20.820458 17.14442,21.148185 C 16.816692,21.475913 16.375524,21.606007 15.948582,21.550745 C 15.960654,21.615662 15.976686,21.684865 15.995941,21.752025 C 16.172465,22.367704 16.650908,23.07003 17.24506,23.664182 z "
         id="path10293"
         inkscape:transform-center-x="-11.212948" />
      <path
         inkscape:transform-center-y="-11.212948"
         id="path10295"
         d="M 19.664183,18.75494 C 20.258335,18.160789 20.742698,17.452542 20.919221,16.836863 C 21.272267,15.605505 20.392342,14.72558 19.160984,15.078626 C 17.929626,15.431673 16.346836,17.014463 15.993789,18.245821 C 15.974533,18.312981 15.958501,18.382184 15.946429,18.447101 C 16.373371,18.391839 16.820459,18.527853 17.148187,18.85558 C 17.475915,19.183308 17.606008,19.624476 17.550746,20.051418 C 17.615663,20.039346 17.684866,20.023314 17.752026,20.004058 C 18.367705,19.827535 19.070031,19.349092 19.664183,18.75494 z "
         style="fill:#fce94f;fill-rule:evenodd;stroke:none;stroke-width:4.14943838px;stroke-linecap:butt;stroke-linejoin:miter;stroke-opacity:1" />
      <path
         style="fill:#fce94f;fill-rule:evenodd;stroke:none;stroke-width:4.14943838px;stroke-linecap:butt;stroke-linejoin:miter;stroke-opacity:1"
         d="M 12.335818,21.245058 C 11.741667,21.83921 11.257304,22.547456 11.08078,23.163135 C 10.727734,24.394493 11.60766,25.274419 12.839018,24.921372 C 14.070376,24.568326 15.653166,22.985535 16.006213,21.754177 C 16.025468,21.687018 16.0415,21.617814 16.053572,21.552898 C 15.62663,21.608159 15.179542,21.472146 14.851814,21.144418 C 14.524087,20.816691 14.393993,20.375522 14.449255,19.94858 C 14.384338,19.960652 14.315135,19.976685 14.247975,19.99594 C 13.632296,20.172463 12.92997,20.650906 12.335818,21.245058 z "
         id="path10297"
         inkscape:transform-center-y="11.212948" />
    </g>
  </g>
</svg>
