<?xml version="1.0" encoding="UTF-8" standalone="no"?>
<!-- Created with Inkscape (http://www.inkscape.org/) -->
<svg
   xmlns:dc="http://purl.org/dc/elements/1.1/"
   xmlns:cc="http://web.resource.org/cc/"
   xmlns:rdf="http://www.w3.org/1999/02/22-rdf-syntax-ns#"
   xmlns:svg="http://www.w3.org/2000/svg"
   xmlns="http://www.w3.org/2000/svg"
   xmlns:sodipodi="http://sodipodi.sourceforge.net/DTD/sodipodi-0.dtd"
   xmlns:inkscape="http://www.inkscape.org/namespaces/inkscape"
   width="64"
   height="64"
   id="svg2"
   sodipodi:version="0.32"
   inkscape:version="0.45"
   version="1.0"
   sodipodi:docname="stream-n-s-w.svg"
   sodipodi:docbase="/home/mark/projects/questar/trunk/data/tileset"
   inkscape:output_extension="org.inkscape.output.svg.inkscape"
   sodipodi:modified="true">
  <defs
     id="defs4" />
  <sodipodi:namedview
     id="base"
     pagecolor="#ffffff"
     bordercolor="#666666"
     borderopacity="1.0"
     gridtolerance="10000"
     guidetolerance="10"
     objecttolerance="10"
     inkscape:pageopacity="0.0"
     inkscape:pageshadow="2"
     inkscape:zoom="1"
     inkscape:cx="41.020972"
     inkscape:cy="52.754356"
     inkscape:document-units="px"
     inkscape:current-layer="layer1"
     showgrid="false"
     inkscape:window-width="922"
     inkscape:window-height="628"
     inkscape:window-x="58"
     inkscape:window-y="48"
     width="64px"
     height="64px" />
  <metadata
     id="metadata7">
    <rdf:RDF>
      <cc:Work
         rdf:about="">
        <dc:format>image/svg+xml</dc:format>
        <dc:type
           rdf:resource="http://purl.org/dc/dcmitype/StillImage" />
      </cc:Work>
    </rdf:RDF>
  </metadata>
  <g
     inkscape:label="Layer 1"
     inkscape:groupmode="layer"
     id="layer1"
     transform="translate(0,-860.36218)">
    <g
       id="g2402"
       transform="matrix(0,-1,1,0,-860.36218,924.36218)">
      <path
         sodipodi:nodetypes="cccccc"
         d="M 13.54674,873.2478 C 10.671743,876.68727 3.1417985,874.8553 0,874.8553 L 0,902.39179 C 42.833773,899.57103 53.690477,909.53662 41.506889,860.36218 C 38.67503,860.36218 15.650269,860.36218 13.970395,860.36218 C 14.079626,865.75117 15.215847,870.37208 13.54674,873.2478 z "
         style="fill:#204a87;fill-opacity:1;stroke:none;stroke-width:0.99999994;stroke-linecap:square;stroke-linejoin:round;stroke-miterlimit:4;stroke-opacity:1"
         id="path2317" />
      <path
         sodipodi:nodetypes="cccsssccsssc"
         id="path7307"
         d="M 17,878.31978 C 11.390288,878.91229 3.5906269,878.8919 0,878.8919 L 0,910.36218 C 7.0601943,910.36218 11.740218,907.99658 17,907.99658 C 22.97484,907.99658 25.02516,909.96274 31,909.96274 C 36.97484,909.96274 41.21266,909.4712 47.1875,909.4712 C 53.15168,909.4712 58.03964,910.35687 64,910.36218 L 64,878.8919 C 59.982539,878.8919 59.61088,879.57917 55.75,880.04017 C 51.96759,880.4918 47.10124,878.84204 44.75,878.84204 C 39.92291,878.84204 36.41255,881.02985 31,880.28594 C 25.824134,879.57456 25.748067,878.08265 17,878.31978 z "
         style="fill:#204a87;fill-opacity:1;stroke:none;stroke-width:0.99999994;stroke-linecap:square;stroke-linejoin:round;stroke-miterlimit:4;stroke-dasharray:none;stroke-opacity:1" />
      <path
         id="path2319"
         style="fill:#204a87;fill-opacity:1;stroke:none;stroke-width:0.99999994;stroke-linecap:square;stroke-linejoin:round;stroke-miterlimit:4;stroke-opacity:1"
         d="M 64,902.39179 L 64,874.8553 C 60.484722,874.8553 60.15952,875.45666 56.78125,875.86003 C 53.471641,876.2552 54.224371,875.59112 52.167036,875.59112 C 50.055185,875.59112 49.334472,870.72948 48.584969,868.98395 C 47.304045,866.00078 49.628905,866.38465 49.506889,860.36218 C 46.67503,860.36218 23.650269,860.36218 21.970395,860.36218 C 10.605667,910.09258 14.085967,901.02746 64,902.39179 z "
         sodipodi:nodetypes="ccsssccc" />
      <path
         id="path2195"
         style="fill:#729fcf;fill-opacity:1;stroke:none;stroke-width:0.99999994;stroke-linecap:square;stroke-linejoin:round;stroke-miterlimit:4;stroke-opacity:1"
         d="M 15.481989,875.0886 C 12.196278,879.01942 3.5906269,876.92574 0,876.92574 L 0,908.39602 C 7.0601943,908.39602 11.740218,906.03041 17,906.03041 C 22.97484,906.03041 25.02516,907.99658 31,907.99658 C 36.97484,907.99658 41.21266,907.50504 47.1875,907.50504 C 53.15168,907.50504 58.03964,908.39071 64,908.39602 L 64,876.92574 C 59.982539,876.92574 59.61088,877.61301 55.75,878.07401 C 51.96759,878.52563 52.827853,877.76668 50.476613,877.76668 C 48.063068,877.76668 47.239397,872.21052 46.382822,870.21563 C 44.918908,866.80629 47.575891,867.245 47.436445,860.36218 C 44.200034,860.36218 17.886022,860.36218 15.966166,860.36218 C 16.091001,866.52103 17.389539,871.80207 15.481989,875.0886 z "
         sodipodi:nodetypes="cccsssccsssccc" />
    </g>
  </g>
</svg>
