<?xml version="1.0" encoding="UTF-8" standalone="no"?>
<!-- Created with Inkscape (http://www.inkscape.org/) -->
<svg
   xmlns:dc="http://purl.org/dc/elements/1.1/"
   xmlns:cc="http://web.resource.org/cc/"
   xmlns:rdf="http://www.w3.org/1999/02/22-rdf-syntax-ns#"
   xmlns:svg="http://www.w3.org/2000/svg"
   xmlns="http://www.w3.org/2000/svg"
   xmlns:sodipodi="http://sodipodi.sourceforge.net/DTD/sodipodi-0.dtd"
   xmlns:inkscape="http://www.inkscape.org/namespaces/inkscape"
   width="16"
   height="16"
   id="svg2"
   sodipodi:version="0.32"
   inkscape:version="0.45"
   version="1.0"
   sodipodi:docname="hero.svg"
   sodipodi:docbase="/home/mark/projects/questar/tilesets/ascii"
   inkscape:output_extension="org.inkscape.output.svg.inkscape"
   sodipodi:modified="true">
  <defs
     id="defs4" />
  <sodipodi:namedview
     id="base"
     pagecolor="#ffffff"
     bordercolor="#666666"
     borderopacity="1.0"
     gridtolerance="10000"
     guidetolerance="10"
     objecttolerance="10"
     inkscape:pageopacity="0.0"
     inkscape:pageshadow="2"
     inkscape:zoom="4"
     inkscape:cx="75.953166"
     inkscape:cy="15.272601"
     inkscape:document-units="px"
     inkscape:current-layer="layer1"
     width="16px"
     height="16px"
     inkscape:window-width="922"
     inkscape:window-height="628"
     inkscape:window-x="50"
     inkscape:window-y="58" />
  <metadata
     id="metadata7">
    <rdf:RDF>
      <cc:Work
         rdf:about="">
        <dc:format>image/svg+xml</dc:format>
        <dc:type
           rdf:resource="http://purl.org/dc/dcmitype/StillImage" />
      </cc:Work>
    </rdf:RDF>
  </metadata>
  <g
     inkscape:label="Layer 1"
     inkscape:groupmode="layer"
     id="layer1">
    <path
       transform="matrix(1.3499058,0,0,1.3288839,-6.7796383e-2,-3.334515)"
       style="fill:#c17d11"
       d="M 4.4648438,8.5645056 C 4.4648393,9.1231019 4.603511,9.5625546 4.8808594,9.8828649 C 5.158198,10.199273 5.539057,10.357476 6.0234375,10.357474 C 6.5038997,10.357476 6.8808525,10.19732 7.1542969,9.8770056 C 7.4316332,9.5566952 7.5703049,9.1191956 7.5703125,8.5645056 C 7.5703049,8.0176343 7.4296801,7.5840409 7.1484375,7.2637243 C 6.8671806,6.9395103 6.4882748,6.7774011 6.0117188,6.7773962 C 5.539057,6.7774011 5.1621042,6.9375572 4.8808594,7.2578649 C 4.603511,7.5781816 4.4648393,8.013728 4.4648438,8.5645056 M 7.6582031,10.316459 C 7.4238207,10.617241 7.1542897,10.839897 6.8496094,10.984427 C 6.5488216,11.125053 6.1972594,11.195365 5.7949219,11.195365 C 5.1230418,11.195365 4.5761673,10.953178 4.1542969,10.468802 C 3.7363244,9.9805229 3.5273402,9.3457579 3.5273438,8.5645056 C 3.5273402,7.7832595 3.7382775,7.1484945 4.1601562,6.6602087 C 4.5820267,6.171933 5.126948,5.9277926 5.7949219,5.9277868 C 6.1972594,5.9277926 6.5507747,6.0020113 6.8554688,6.1504431 C 7.1601491,6.2949797 7.4277269,6.5156826 7.6582031,6.8125524 L 7.6582031,6.0449743 L 8.4960938,6.0449743 L 8.4960938,10.357474 C 9.0663972,10.271538 9.5117092,10.011773 9.8320312,9.5781774 C 10.15624,9.14068 10.318349,8.5762274 10.318359,7.8848181 C 10.318349,7.4668536 10.255849,7.0742758 10.130859,6.7070837 C 10.009756,6.3399016 9.8242089,6.0000581 9.5742188,5.6875524 C 9.1679596,5.1758402 8.6718663,4.7852156 8.0859375,4.5156774 C 7.5038987,4.2422474 6.8691338,4.1055288 6.1816406,4.1055212 C 5.7011662,4.1055288 5.2402291,4.1699818 4.7988281,4.2988806 C 4.3574175,4.4238878 3.9492148,4.6113877 3.5742188,4.8613806 C 2.9609345,5.2598245 2.4804663,5.7832615 2.1328125,6.4316931 C 1.7890607,7.0762289 1.6171859,7.775447 1.6171875,8.5293493 C 1.6171859,9.1504456 1.7285139,9.7324763 1.9511719,10.275443 C 2.1777322,10.818413 2.5039037,11.296928 2.9296875,11.71099 C 3.3398404,12.11724 3.8144493,12.425833 4.3535156,12.636771 C 4.8925732,12.851614 5.4687445,12.959036 6.0820312,12.959037 C 6.5859309,12.959036 7.080071,12.873098 7.5644531,12.701224 C 8.0527263,12.533255 8.4999915,12.291067 8.90625,11.974662 L 9.4335938,12.625052 C 8.9453036,13.003957 8.412101,13.29302 7.8339844,13.49224 C 7.2597584,13.695363 6.6757746,13.796925 6.0820312,13.796927 C 5.3593696,13.796925 4.6777297,13.668019 4.0371094,13.410209 C 3.396481,13.156301 2.826169,12.785208 2.3261719,12.296927 C 1.82617,11.808646 1.4453111,11.244194 1.1835938,10.603568 C 0.92187408,9.9590386 0.79101483,9.267633 0.79101562,8.5293493 C 0.79101483,7.8184157 0.9238272,7.140682 1.1894531,6.4961462 C 1.4550767,5.8516208 1.8339825,5.2852151 2.3261719,4.7969274 C 2.8300753,4.3008411 3.412106,3.9219352 4.0722656,3.6602087 C 4.7324171,3.394592 5.4316352,3.2617796 6.1699219,3.2617712 C 6.9980399,3.2617796 7.7656172,3.4317013 8.4726562,3.7715368 C 9.1835846,4.1113882 9.7792871,4.5938096 10.259766,5.2188024 C 10.552724,5.601621 10.77538,6.0176363 10.927734,6.4668493 C 11.083973,6.9160729 11.162098,7.3809161 11.162109,7.8613806 C 11.162098,8.8887271 10.851552,9.6992732 10.230469,10.293021 C 9.6093654,10.886772 8.7519444,11.195365 7.6582031,11.218802 L 7.6582031,10.316459"
       id="flowRoot2160" />
  </g>
</svg>
