<?xml version="1.0" encoding="UTF-8" standalone="no"?>
<!-- Created with Inkscape (http://www.inkscape.org/) -->
<svg
   xmlns:dc="http://purl.org/dc/elements/1.1/"
   xmlns:cc="http://web.resource.org/cc/"
   xmlns:rdf="http://www.w3.org/1999/02/22-rdf-syntax-ns#"
   xmlns:svg="http://www.w3.org/2000/svg"
   xmlns="http://www.w3.org/2000/svg"
   xmlns:sodipodi="http://sodipodi.sourceforge.net/DTD/sodipodi-0.dtd"
   xmlns:inkscape="http://www.inkscape.org/namespaces/inkscape"
   width="64"
   height="64"
   id="svg2"
   sodipodi:version="0.32"
   inkscape:version="0.45"
   version="1.0"
   sodipodi:docname="dude.svg"
   sodipodi:docbase="/home/mark/projects/questar/trunk/data/tileset"
   inkscape:output_extension="org.inkscape.output.svg.inkscape"
   sodipodi:modified="true">
  <defs
     id="defs4">
    <marker
       inkscape:stockid="CurveIn"
       orient="auto"
       refY="0.0"
       refX="0.0"
       id="CurveIn"
       style="overflow:visible">
      <path
         id="path6135"
         d="M 4.6254930,-5.0456926 C 1.8654930,-5.0456926 -0.37450702,-2.8056926 -0.37450702,-0.045692580 C -0.37450702,2.7143074 1.8654930,4.9543074 4.6254930,4.9543074"
         style="fill-rule:evenodd;stroke:#000000;stroke-width:1.0pt;marker-start:none;marker-end:none;fill:none"
         transform="scale(0.6)" />
    </marker>
    <marker
       inkscape:stockid="CurveOut"
       orient="auto"
       refY="0.0"
       refX="0.0"
       id="CurveOut"
       style="overflow:visible">
      <path
         id="path6132"
         d="M -5.4129913,-5.0456926 C -2.6529913,-5.0456926 -0.41299131,-2.8056926 -0.41299131,-0.045692580 C -0.41299131,2.7143074 -2.6529913,4.9543074 -5.4129913,4.9543074"
         style="fill:none;fill-rule:evenodd;stroke:#000000;stroke-width:1.0pt;marker-start:none;marker-end:none"
         transform="scale(0.6)" />
    </marker>
    <marker
       style="overflow:visible"
       inkscape:stockid="InfiniteLineEnd"
       id="InfiniteLineEnd"
       refX="0"
       refY="0"
       orient="auto">
      <g
         id="g6078">
        <circle
           id="circle6080"
           r="0.8"
           cy="0"
           cx="3" />
        <circle
           id="circle6082"
           r="0.8"
           cy="0"
           cx="6.5" />
        <circle
           id="circle6084"
           r="0.8"
           cy="0"
           cx="10" />
      </g>
    </marker>
    <marker
       inkscape:stockid="Club"
       orient="auto"
       refY="0.0"
       refX="0.0"
       id="Club"
       style="overflow:visible">
      <path
         id="path6090"
         d="M -1.5971367,-7.0977635 C -3.4863874,-7.0977635 -5.0235187,-5.5606321 -5.0235187,-3.6713813 C -5.0235187,-3.0147015 -4.7851656,-2.4444556 -4.4641095,-1.9232271 C -4.5028609,-1.8911157 -4.5437814,-1.8647646 -4.5806531,-1.8299921 C -5.2030765,-2.6849849 -6.1700514,-3.2751330 -7.3077730,-3.2751330 C -9.1970245,-3.2751331 -10.734155,-1.7380016 -10.734155,0.15124914 C -10.734155,2.0404999 -9.1970245,3.5776313 -7.3077730,3.5776313 C -6.3143268,3.5776313 -5.4391540,3.1355702 -4.8137404,2.4588126 C -4.9384274,2.8137041 -5.0235187,3.1803000 -5.0235187,3.5776313 C -5.0235187,5.4668819 -3.4863874,7.0040135 -1.5971367,7.0040135 C 0.29211394,7.0040135 1.8292454,5.4668819 1.8292454,3.5776313 C 1.8292454,2.7842354 1.5136868,2.0838028 1.0600576,1.5031550 C 2.4152718,1.7663868 3.7718375,2.2973711 4.7661444,3.8340272 C 4.0279463,3.0958289 3.5540908,1.7534117 3.5540908,-0.058529361 L 2.9247554,-0.10514681 L 3.5074733,-0.12845553 C 3.5074733,-1.9403966 3.9580199,-3.2828138 4.6962183,-4.0210121 C 3.7371277,-2.5387813 2.4390549,-1.9946496 1.1299838,-1.7134486 C 1.5341802,-2.2753578 1.8292454,-2.9268556 1.8292454,-3.6713813 C 1.8292454,-5.5606319 0.29211394,-7.0977635 -1.5971367,-7.0977635 z "
         style="fill-rule:evenodd;stroke:#000000;stroke-width:0.74587913pt;marker-start:none"
         transform="scale(0.6)" />
    </marker>
  </defs>
  <sodipodi:namedview
     id="base"
     pagecolor="#ffffff"
     bordercolor="#666666"
     borderopacity="1.0"
     gridtolerance="10000"
     guidetolerance="10"
     objecttolerance="10"
     inkscape:pageopacity="0.0"
     inkscape:pageshadow="2"
     inkscape:zoom="4"
     inkscape:cx="42.85368"
     inkscape:cy="37.68423"
     inkscape:document-units="px"
     inkscape:current-layer="layer1"
     width="64px"
     height="64px"
     inkscape:window-width="872"
     inkscape:window-height="626"
     inkscape:window-x="76"
     inkscape:window-y="59" />
  <metadata
     id="metadata7">
    <rdf:RDF>
      <cc:Work
         rdf:about="">
        <dc:format>image/svg+xml</dc:format>
        <dc:type
           rdf:resource="http://purl.org/dc/dcmitype/StillImage" />
      </cc:Work>
    </rdf:RDF>
  </metadata>
  <g
     inkscape:label="Layer 1"
     inkscape:groupmode="layer"
     id="layer1">
    <g
       id="g3213"
       transform="matrix(1.0086243,0,0,1.007397,-0.7417699,2.3575145)">
      <rect
         ry="2.7349648"
         y="52.538197"
         x="23.175667"
         height="7.1274848"
         width="6.2913747"
         id="rect5080"
         style="fill:#c17d11;fill-opacity:1;fill-rule:nonzero;stroke:#8f5902;stroke-width:1.05460906;stroke-linecap:round;stroke-linejoin:round;stroke-miterlimit:0;stroke-dasharray:none;stroke-opacity:1" />
      <rect
         style="fill:#c17d11;fill-opacity:1;fill-rule:nonzero;stroke:#8f5902;stroke-width:1.0424372;stroke-linecap:round;stroke-linejoin:round;stroke-miterlimit:0;stroke-dasharray:none;stroke-opacity:1"
         id="rect5082"
         width="6.1364226"
         height="7.1397543"
         x="34.523968"
         y="52.334347"
         ry="2.7396729" />
      <path
         style="fill:#729fcf;fill-opacity:1;fill-rule:nonzero;stroke:#3465a4;stroke-width:0.85100979;stroke-linecap:round;stroke-linejoin:round;stroke-miterlimit:0;stroke-opacity:1"
         d="M 27.199189,32.38171 L 36.797656,32.38171 C 39.253519,32.38171 41.23062,34.358812 41.23062,36.814674 L 41.23062,54.749811 C 31.40756,55.024071 33.209773,55.608054 31.998423,45.686686 C 30.675593,55.274538 33.139558,55.137408 22.766225,54.749811 L 22.766225,36.814674 C 22.766225,34.358812 24.743326,32.38171 27.199189,32.38171 z "
         id="path4107"
         sodipodi:nodetypes="cccccccc" />
      <path
         sodipodi:nodetypes="ccsccssscccscccccc"
         id="rect4102"
         d="M 26.494315,16.106868 C 24.245396,16.096126 22.482624,15.706051 22.494315,18.537232 C 14.124987,31.986784 14.157018,30.212779 16.123569,31.977237 C 18.726433,34.312616 22.306815,25.242914 22.306815,25.242914 L 22.525565,36.830895 C 24.290849,37.074138 25.953797,37.236385 27.588065,37.351163 C 28.279834,37.399748 28.973052,37.441164 29.650565,37.466778 C 30.458525,37.500649 31.277098,37.52447 32.088065,37.524586 C 33.522216,37.519785 34.961649,37.461606 36.400565,37.351163 C 38.034834,37.236385 39.697781,37.074138 41.463065,36.830895 L 41.713065,25.242914 C 41.713065,25.242914 45.792248,33.609167 47.880686,31.977236 C 51.924993,28.816965 49.863643,31.986783 41.494315,18.537232 C 41.506787,15.517304 39.520474,15.86796 37.056815,16.135772 L 36.556815,16.135772 L 27.431815,16.135772 L 26.963065,16.135772 C 26.809086,16.119033 26.644243,16.107584 26.494315,16.106868 z "
         style="fill:#ef2929;fill-opacity:1;fill-rule:nonzero;stroke:#cc0000;stroke-width:0.85100979;stroke-linecap:round;stroke-linejoin:round;stroke-miterlimit:0;stroke-opacity:1" />
      <path
         transform="matrix(0.6902911,0,0,0.6902911,12.548166,-0.8376459)"
         d="M 39.129924 16.592592 A 10.953034 10.953034 0 1 1  17.223855,16.592592 A 10.953034 10.953034 0 1 1  39.129924 16.592592 z"
         sodipodi:ry="10.953034"
         sodipodi:rx="10.953034"
         sodipodi:cy="16.592592"
         sodipodi:cx="28.176889"
         id="path2160"
         style="fill:#fcaf3e;fill-opacity:1;fill-rule:nonzero;stroke:#f57900;stroke-width:1.26244664;stroke-linecap:round;stroke-linejoin:round;stroke-miterlimit:0;stroke-dasharray:none;stroke-opacity:1"
         sodipodi:type="arc" />
      <path
         sodipodi:nodetypes="cc"
         id="path6064"
         d="M 29.250841,13.586793 C 29.250841,13.586793 31.455116,15.832758 34.879661,13.586793"
         style="fill:none;fill-rule:evenodd;stroke:#000000;stroke-width:0.29761598;stroke-linecap:butt;stroke-linejoin:round;marker-start:url(#CurveOut);marker-end:url(#CurveIn);stroke-miterlimit:4;stroke-dasharray:none;stroke-dashoffset:0;stroke-opacity:1" />
      <path
         transform="translate(22.596835,3.8039461)"
         d="M 13.154789 4.4690051 A 1.4492564 1.5607377 0 1 1  10.256277,4.4690051 A 1.4492564 1.5607377 0 1 1  13.154789 4.4690051 z"
         sodipodi:ry="1.5607377"
         sodipodi:rx="1.4492564"
         sodipodi:cy="4.4690051"
         sodipodi:cx="11.705533"
         id="path6273"
         style="fill:#eeeeec;fill-opacity:1;fill-rule:nonzero;stroke:#000000;stroke-width:0.29761598;stroke-linecap:round;stroke-linejoin:round;stroke-miterlimit:4;stroke-dasharray:none;stroke-dashoffset:0;stroke-opacity:1"
         sodipodi:type="arc" />
      <path
         sodipodi:type="arc"
         style="fill:#eeeeec;fill-opacity:1;fill-rule:nonzero;stroke:#000000;stroke-width:0.29761598;stroke-linecap:round;stroke-linejoin:round;stroke-miterlimit:4;stroke-dasharray:none;stroke-dashoffset:0;stroke-opacity:1"
         id="path6275"
         sodipodi:cx="11.705533"
         sodipodi:cy="4.4690051"
         sodipodi:rx="1.4492564"
         sodipodi:ry="1.5607377"
         d="M 13.154789 4.4690051 A 1.4492564 1.5607377 0 1 1  10.256277,4.4690051 A 1.4492564 1.5607377 0 1 1  13.154789 4.4690051 z"
         transform="translate(17.988943,3.8039461)" />
      <path
         transform="matrix(0.6307282,0,0,0.6307282,22.311466,5.4542237)"
         d="M 13.154789 4.4690051 A 1.4492564 1.5607377 0 1 1  10.256277,4.4690051 A 1.4492564 1.5607377 0 1 1  13.154789 4.4690051 z"
         sodipodi:ry="1.5607377"
         sodipodi:rx="1.4492564"
         sodipodi:cy="4.4690051"
         sodipodi:cx="11.705533"
         id="path7252"
         style="fill:#000000;fill-opacity:1;fill-rule:nonzero;stroke:none;stroke-width:0.30000001;stroke-linecap:round;stroke-linejoin:round;stroke-miterlimit:4;stroke-dasharray:none;stroke-dashoffset:0;stroke-opacity:1"
         sodipodi:type="arc" />
      <path
         sodipodi:type="arc"
         style="fill:#000000;fill-opacity:1;fill-rule:nonzero;stroke:none;stroke-width:0.30000001;stroke-linecap:round;stroke-linejoin:round;stroke-miterlimit:4;stroke-dasharray:none;stroke-dashoffset:0;stroke-opacity:1"
         id="path7254"
         sodipodi:cx="11.705533"
         sodipodi:cy="4.4690051"
         sodipodi:rx="1.4492564"
         sodipodi:ry="1.5607377"
         d="M 13.154789 4.4690051 A 1.4492564 1.5607377 0 1 1  10.256277,4.4690051 A 1.4492564 1.5607377 0 1 1  13.154789 4.4690051 z"
         transform="matrix(0.6307282,0,0,0.6307282,26.919358,5.4542237)" />
    </g>
  </g>
</svg>
