<?xml version="1.0" encoding="UTF-8" standalone="no"?>
<!-- Created with Inkscape (http://www.inkscape.org/) -->
<svg
   xmlns:dc="http://purl.org/dc/elements/1.1/"
   xmlns:cc="http://web.resource.org/cc/"
   xmlns:rdf="http://www.w3.org/1999/02/22-rdf-syntax-ns#"
   xmlns:svg="http://www.w3.org/2000/svg"
   xmlns="http://www.w3.org/2000/svg"
   xmlns:sodipodi="http://sodipodi.sourceforge.net/DTD/sodipodi-0.dtd"
   xmlns:inkscape="http://www.inkscape.org/namespaces/inkscape"
   width="64"
   height="64"
   id="svg2"
   sodipodi:version="0.32"
   inkscape:version="0.45"
   version="1.0"
   sodipodi:docname="Dude-1.svg"
   sodipodi:docbase="/home/mark/projects/questar/trunk/data/tileset"
   inkscape:output_extension="org.inkscape.output.svg.inkscape"
   inkscape:export-filename="/home/mark/Desktop/Dude-1.png"
   inkscape:export-xdpi="90"
   inkscape:export-ydpi="90"
   sodipodi:modified="TRUE">
  <defs
     id="defs4">
    <marker
       inkscape:stockid="CurveIn"
       orient="auto"
       refY="0.0"
       refX="0.0"
       id="CurveIn"
       style="overflow:visible">
      <path
         id="path6135"
         d="M 4.6254930,-5.0456926 C 1.8654930,-5.0456926 -0.37450702,-2.8056926 -0.37450702,-0.045692580 C -0.37450702,2.7143074 1.8654930,4.9543074 4.6254930,4.9543074"
         style="fill-rule:evenodd;stroke:#000000;stroke-width:1.0pt;marker-start:none;marker-end:none;fill:none"
         transform="scale(0.6)" />
    </marker>
    <marker
       inkscape:stockid="CurveOut"
       orient="auto"
       refY="0.0"
       refX="0.0"
       id="CurveOut"
       style="overflow:visible">
      <path
         id="path6132"
         d="M -5.4129913,-5.0456926 C -2.6529913,-5.0456926 -0.41299131,-2.8056926 -0.41299131,-0.045692580 C -0.41299131,2.7143074 -2.6529913,4.9543074 -5.4129913,4.9543074"
         style="fill:none;fill-rule:evenodd;stroke:#000000;stroke-width:1.0pt;marker-start:none;marker-end:none"
         transform="scale(0.6)" />
    </marker>
    <marker
       style="overflow:visible"
       inkscape:stockid="InfiniteLineEnd"
       id="InfiniteLineEnd"
       refX="0"
       refY="0"
       orient="auto">
      <g
         id="g6078">
        <circle
           id="circle6080"
           r="0.8"
           cy="0"
           cx="3" />
        <circle
           id="circle6082"
           r="0.8"
           cy="0"
           cx="6.5" />
        <circle
           id="circle6084"
           r="0.8"
           cy="0"
           cx="10" />
      </g>
    </marker>
    <marker
       inkscape:stockid="Club"
       orient="auto"
       refY="0.0"
       refX="0.0"
       id="Club"
       style="overflow:visible">
      <path
         id="path6090"
         d="M -1.5971367,-7.0977635 C -3.4863874,-7.0977635 -5.0235187,-5.5606321 -5.0235187,-3.6713813 C -5.0235187,-3.0147015 -4.7851656,-2.4444556 -4.4641095,-1.9232271 C -4.5028609,-1.8911157 -4.5437814,-1.8647646 -4.5806531,-1.8299921 C -5.2030765,-2.6849849 -6.1700514,-3.2751330 -7.3077730,-3.2751330 C -9.1970245,-3.2751331 -10.734155,-1.7380016 -10.734155,0.15124914 C -10.734155,2.0404999 -9.1970245,3.5776313 -7.3077730,3.5776313 C -6.3143268,3.5776313 -5.4391540,3.1355702 -4.8137404,2.4588126 C -4.9384274,2.8137041 -5.0235187,3.1803000 -5.0235187,3.5776313 C -5.0235187,5.4668819 -3.4863874,7.0040135 -1.5971367,7.0040135 C 0.29211394,7.0040135 1.8292454,5.4668819 1.8292454,3.5776313 C 1.8292454,2.7842354 1.5136868,2.0838028 1.0600576,1.5031550 C 2.4152718,1.7663868 3.7718375,2.2973711 4.7661444,3.8340272 C 4.0279463,3.0958289 3.5540908,1.7534117 3.5540908,-0.058529361 L 2.9247554,-0.10514681 L 3.5074733,-0.12845553 C 3.5074733,-1.9403966 3.9580199,-3.2828138 4.6962183,-4.0210121 C 3.7371277,-2.5387813 2.4390549,-1.9946496 1.1299838,-1.7134486 C 1.5341802,-2.2753578 1.8292454,-2.9268556 1.8292454,-3.6713813 C 1.8292454,-5.5606319 0.29211394,-7.0977635 -1.5971367,-7.0977635 z "
         style="fill-rule:evenodd;stroke:#000000;stroke-width:0.74587913pt;marker-start:none"
         transform="scale(0.6)" />
    </marker>
  </defs>
  <sodipodi:namedview
     id="base"
     pagecolor="#ffffff"
     bordercolor="#666666"
     borderopacity="1.0"
     gridtolerance="10000"
     guidetolerance="10"
     objecttolerance="10"
     inkscape:pageopacity="0.0"
     inkscape:pageshadow="2"
     inkscape:zoom="5.1062746"
     inkscape:cx="21.692474"
     inkscape:cy="25.238239"
     inkscape:document-units="px"
     inkscape:current-layer="layer1"
     width="64px"
     height="64px"
     inkscape:window-width="922"
     inkscape:window-height="628"
     inkscape:window-x="76"
     inkscape:window-y="59" />
  <metadata
     id="metadata7">
    <rdf:RDF>
      <cc:Work
         rdf:about="">
        <dc:format>image/svg+xml</dc:format>
        <dc:type
           rdf:resource="http://purl.org/dc/dcmitype/StillImage" />
      </cc:Work>
    </rdf:RDF>
  </metadata>
  <g
     inkscape:label="Layer 1"
     inkscape:groupmode="layer"
     id="layer1">
    <rect
       style="fill:#c17d11;fill-opacity:1;fill-rule:nonzero;stroke:#8f5902;stroke-width:1.06305707;stroke-linecap:round;stroke-linejoin:round;stroke-miterlimit:0;stroke-dasharray:none;stroke-opacity:1"
       id="rect5080"
       width="6.2913747"
       height="7.1274848"
       x="23.175667"
       y="56.038197"
       ry="2.7349648" />
    <rect
       ry="2.7396729"
       y="52.834347"
       x="34.523968"
       height="7.1397543"
       width="6.1364226"
       id="rect5082"
       style="fill:#c17d11;fill-opacity:1;fill-rule:nonzero;stroke:#8f5902;stroke-width:1.05078757;stroke-linecap:round;stroke-linejoin:round;stroke-miterlimit:0;stroke-dasharray:none;stroke-opacity:1" />
    <path
       sodipodi:nodetypes="cccccccc"
       id="path4107"
       d="M 27.199189,33.88171 L 36.797656,33.88171 C 39.253519,33.88171 41.23062,35.858812 41.23062,38.314674 L 41.23062,56.249811 C 31.40756,56.524071 33.209773,57.108054 31.998423,47.186686 C 30.675593,56.774538 33.139558,56.637408 22.766225,56.249811 L 22.766225,38.314674 C 22.766225,35.858812 24.743326,33.88171 27.199189,33.88171 z "
       style="fill:#729fcf;fill-opacity:1;fill-rule:nonzero;stroke:#3465a4;stroke-width:0.85782677;stroke-linecap:round;stroke-linejoin:round;stroke-miterlimit:0;stroke-opacity:1" />
    <path
       style="fill:#ef2929;fill-opacity:1;fill-rule:nonzero;stroke:#cc0000;stroke-width:0.85782677;stroke-linecap:round;stroke-linejoin:round;stroke-miterlimit:0;stroke-opacity:1"
       d="M 26.494315,15.243337 C 24.245396,15.231723 22.482624,14.809985 22.494315,17.87098 C 14.124987,32.412267 14.157018,30.494262 16.123569,32.401945 C 18.726433,34.926893 22.306815,25.12098 22.306815,25.12098 L 22.525565,37.649587 C 24.290849,37.912575 25.953797,38.087992 27.588065,38.212087 C 28.279834,38.264615 28.973052,38.309393 29.650565,38.337087 C 30.458525,38.373707 31.277098,38.399461 32.088065,38.399587 C 33.522216,38.394396 34.961649,38.331495 36.400565,38.212087 C 38.034834,38.087992 39.697781,37.912575 41.463065,37.649587 L 41.713065,25.12098 C 41.713065,25.12098 45.792248,34.166343 47.880686,32.401944 C 51.924993,28.985146 49.863643,32.412266 41.494315,17.87098 C 41.506787,14.605917 39.520474,14.985036 37.056815,15.274587 L 36.556815,15.274587 L 27.431815,15.274587 L 26.963065,15.274587 C 26.809086,15.25649 26.644243,15.244111 26.494315,15.243337 z "
       id="rect4102"
       sodipodi:nodetypes="ccsccssscccscccccc" />
    <path
       sodipodi:type="arc"
       style="fill:#fcaf3e;fill-opacity:1;fill-rule:nonzero;stroke:#f57900;stroke-width:1.2725594;stroke-linecap:round;stroke-linejoin:round;stroke-miterlimit:0;stroke-dasharray:none;stroke-opacity:1"
       id="path2160"
       sodipodi:cx="28.176889"
       sodipodi:cy="16.592592"
       sodipodi:rx="10.953034"
       sodipodi:ry="10.953034"
       d="M 39.129924 16.592592 A 10.953034 10.953034 0 1 1  17.223855,16.592592 A 10.953034 10.953034 0 1 1  39.129924 16.592592 z"
       transform="matrix(0.6902911,0,0,0.6902911,12.548166,-2.3376459)" />
    <path
       style="fill:none;fill-rule:evenodd;stroke:#000000;stroke-width:0.30000001;stroke-linecap:butt;stroke-linejoin:round;marker-start:url(#CurveOut);marker-end:url(#CurveIn);stroke-miterlimit:4;stroke-dasharray:none;stroke-dashoffset:0;stroke-opacity:1"
       d="M 29.250841,12.086793 C 29.250841,12.086793 31.455116,14.332758 34.879661,12.086793"
       id="path6064"
       sodipodi:nodetypes="cc" />
    <path
       sodipodi:type="arc"
       style="fill:#eeeeec;fill-opacity:1;fill-rule:nonzero;stroke:#000000;stroke-width:0.30000001;stroke-linecap:round;stroke-linejoin:round;stroke-miterlimit:4;stroke-dasharray:none;stroke-dashoffset:0;stroke-opacity:1"
       id="path6273"
       sodipodi:cx="11.705533"
       sodipodi:cy="4.4690051"
       sodipodi:rx="1.4492564"
       sodipodi:ry="1.5607377"
       d="M 13.154789 4.4690051 A 1.4492564 1.5607377 0 1 1  10.256277,4.4690051 A 1.4492564 1.5607377 0 1 1  13.154789 4.4690051 z"
       transform="translate(22.596835,2.3039461)" />
    <path
       transform="translate(17.988943,2.3039461)"
       d="M 13.154789 4.4690051 A 1.4492564 1.5607377 0 1 1  10.256277,4.4690051 A 1.4492564 1.5607377 0 1 1  13.154789 4.4690051 z"
       sodipodi:ry="1.5607377"
       sodipodi:rx="1.4492564"
       sodipodi:cy="4.4690051"
       sodipodi:cx="11.705533"
       id="path6275"
       style="fill:#eeeeec;fill-opacity:1;fill-rule:nonzero;stroke:#000000;stroke-width:0.30000001;stroke-linecap:round;stroke-linejoin:round;stroke-miterlimit:4;stroke-dasharray:none;stroke-dashoffset:0;stroke-opacity:1"
       sodipodi:type="arc" />
    <path
       sodipodi:type="arc"
       style="fill:#000000;fill-opacity:1;fill-rule:nonzero;stroke:none;stroke-width:0.30000001;stroke-linecap:round;stroke-linejoin:round;stroke-miterlimit:4;stroke-dasharray:none;stroke-dashoffset:0;stroke-opacity:1"
       id="path7252"
       sodipodi:cx="11.705533"
       sodipodi:cy="4.4690051"
       sodipodi:rx="1.4492564"
       sodipodi:ry="1.5607377"
       d="M 13.154789 4.4690051 A 1.4492564 1.5607377 0 1 1  10.256277,4.4690051 A 1.4492564 1.5607377 0 1 1  13.154789 4.4690051 z"
       transform="matrix(0.6307282,0,0,0.6307282,22.311466,3.9542237)" />
    <path
       transform="matrix(0.6307282,0,0,0.6307282,26.919358,3.9542237)"
       d="M 13.154789 4.4690051 A 1.4492564 1.5607377 0 1 1  10.256277,4.4690051 A 1.4492564 1.5607377 0 1 1  13.154789 4.4690051 z"
       sodipodi:ry="1.5607377"
       sodipodi:rx="1.4492564"
       sodipodi:cy="4.4690051"
       sodipodi:cx="11.705533"
       id="path7254"
       style="fill:#000000;fill-opacity:1;fill-rule:nonzero;stroke:none;stroke-width:0.30000001;stroke-linecap:round;stroke-linejoin:round;stroke-miterlimit:4;stroke-dasharray:none;stroke-dashoffset:0;stroke-opacity:1"
       sodipodi:type="arc" />
  </g>
</svg>
