<?xml version="1.0" encoding="UTF-8" standalone="no"?>
<!-- Created with Inkscape (http://www.inkscape.org/) -->
<svg
   xmlns:dc="http://purl.org/dc/elements/1.1/"
   xmlns:cc="http://web.resource.org/cc/"
   xmlns:rdf="http://www.w3.org/1999/02/22-rdf-syntax-ns#"
   xmlns:svg="http://www.w3.org/2000/svg"
   xmlns="http://www.w3.org/2000/svg"
   xmlns:sodipodi="http://sodipodi.sourceforge.net/DTD/sodipodi-0.dtd"
   xmlns:inkscape="http://www.inkscape.org/namespaces/inkscape"
   width="64"
   height="64"
   id="svg2"
   sodipodi:version="0.32"
   inkscape:version="0.45"
   version="1.0"
   sodipodi:docname="Dude.svg"
   sodipodi:docbase="/home/mark/projects/questar/trunk/data/tileset"
   inkscape:output_extension="org.inkscape.output.svg.inkscape"
   sodipodi:modified="true">
  <defs
     id="defs4">
    <marker
       inkscape:stockid="CurveIn"
       orient="auto"
       refY="0.0"
       refX="0.0"
       id="CurveIn"
       style="overflow:visible">
      <path
         id="path6135"
         d="M 4.6254930,-5.0456926 C 1.8654930,-5.0456926 -0.37450702,-2.8056926 -0.37450702,-0.045692580 C -0.37450702,2.7143074 1.8654930,4.9543074 4.6254930,4.9543074"
         style="fill-rule:evenodd;stroke:#000000;stroke-width:1.0pt;marker-start:none;marker-end:none;fill:none"
         transform="scale(0.6)" />
    </marker>
    <marker
       inkscape:stockid="CurveOut"
       orient="auto"
       refY="0.0"
       refX="0.0"
       id="CurveOut"
       style="overflow:visible">
      <path
         id="path6132"
         d="M -5.4129913,-5.0456926 C -2.6529913,-5.0456926 -0.41299131,-2.8056926 -0.41299131,-0.045692580 C -0.41299131,2.7143074 -2.6529913,4.9543074 -5.4129913,4.9543074"
         style="fill:none;fill-rule:evenodd;stroke:#000000;stroke-width:1.0pt;marker-start:none;marker-end:none"
         transform="scale(0.6)" />
    </marker>
    <marker
       style="overflow:visible"
       inkscape:stockid="InfiniteLineEnd"
       id="InfiniteLineEnd"
       refX="0"
       refY="0"
       orient="auto">
      <g
         id="g6078">
        <circle
           id="circle6080"
           r="0.8"
           cy="0"
           cx="3" />
        <circle
           id="circle6082"
           r="0.8"
           cy="0"
           cx="6.5" />
        <circle
           id="circle6084"
           r="0.8"
           cy="0"
           cx="10" />
      </g>
    </marker>
    <marker
       inkscape:stockid="Club"
       orient="auto"
       refY="0.0"
       refX="0.0"
       id="Club"
       style="overflow:visible">
      <path
         id="path6090"
         d="M -1.5971367,-7.0977635 C -3.4863874,-7.0977635 -5.0235187,-5.5606321 -5.0235187,-3.6713813 C -5.0235187,-3.0147015 -4.7851656,-2.4444556 -4.4641095,-1.9232271 C -4.5028609,-1.8911157 -4.5437814,-1.8647646 -4.5806531,-1.8299921 C -5.2030765,-2.6849849 -6.1700514,-3.2751330 -7.3077730,-3.2751330 C -9.1970245,-3.2751331 -10.734155,-1.7380016 -10.734155,0.15124914 C -10.734155,2.0404999 -9.1970245,3.5776313 -7.3077730,3.5776313 C -6.3143268,3.5776313 -5.4391540,3.1355702 -4.8137404,2.4588126 C -4.9384274,2.8137041 -5.0235187,3.1803000 -5.0235187,3.5776313 C -5.0235187,5.4668819 -3.4863874,7.0040135 -1.5971367,7.0040135 C 0.29211394,7.0040135 1.8292454,5.4668819 1.8292454,3.5776313 C 1.8292454,2.7842354 1.5136868,2.0838028 1.0600576,1.5031550 C 2.4152718,1.7663868 3.7718375,2.2973711 4.7661444,3.8340272 C 4.0279463,3.0958289 3.5540908,1.7534117 3.5540908,-0.058529361 L 2.9247554,-0.10514681 L 3.5074733,-0.12845553 C 3.5074733,-1.9403966 3.9580199,-3.2828138 4.6962183,-4.0210121 C 3.7371277,-2.5387813 2.4390549,-1.9946496 1.1299838,-1.7134486 C 1.5341802,-2.2753578 1.8292454,-2.9268556 1.8292454,-3.6713813 C 1.8292454,-5.5606319 0.29211394,-7.0977635 -1.5971367,-7.0977635 z "
         style="fill-rule:evenodd;stroke:#000000;stroke-width:0.74587913pt;marker-start:none"
         transform="scale(0.6)" />
    </marker>
  </defs>
  <sodipodi:namedview
     id="base"
     pagecolor="#ffffff"
     bordercolor="#666666"
     borderopacity="1.0"
     gridtolerance="10000"
     guidetolerance="10"
     objecttolerance="10"
     inkscape:pageopacity="0.0"
     inkscape:pageshadow="2"
     inkscape:zoom="5.5730837"
     inkscape:cx="44.297"
     inkscape:cy="39.34035"
     inkscape:document-units="px"
     inkscape:current-layer="layer1"
     width="64px"
     height="64px"
     inkscape:window-width="922"
     inkscape:window-height="628"
     inkscape:window-x="5"
     inkscape:window-y="61" />
  <metadata
     id="metadata7">
    <rdf:RDF>
      <cc:Work
         rdf:about="">
        <dc:format>image/svg+xml</dc:format>
        <dc:type
           rdf:resource="http://purl.org/dc/dcmitype/StillImage" />
      </cc:Work>
    </rdf:RDF>
  </metadata>
  <g
     inkscape:label="Layer 1"
     inkscape:groupmode="layer"
     id="layer1">
    <rect
       style="fill:#c17d11;fill-opacity:1;fill-rule:nonzero;stroke:#8f5902;stroke-width:1.06305707;stroke-linecap:round;stroke-linejoin:round;stroke-miterlimit:0;stroke-dasharray:none;stroke-opacity:1"
       id="rect5080"
       width="6.2913747"
       height="7.1274848"
       x="23.175667"
       y="54.038197"
       ry="2.7349648" />
    <rect
       ry="2.7396729"
       y="53.834347"
       x="34.523968"
       height="7.1397543"
       width="6.1364226"
       id="rect5082"
       style="fill:#c17d11;fill-opacity:1;fill-rule:nonzero;stroke:#8f5902;stroke-width:1.05078757;stroke-linecap:round;stroke-linejoin:round;stroke-miterlimit:0;stroke-dasharray:none;stroke-opacity:1" />
    <path
       sodipodi:nodetypes="cccccccc"
       id="path4107"
       d="M 27.199189,37.829256 L 36.797656,37.829256 C 39.253519,37.829256 41.23062,39.459449 41.23062,41.484397 L 41.23062,56.272576 C 31.40756,56.498713 33.209773,56.980229 31.998423,48.799697 C 30.675593,56.705233 33.139558,56.592164 22.766225,56.272576 L 22.766225,41.484397 C 22.766225,39.459449 24.743326,37.829256 27.199189,37.829256 z "
       style="fill:#729fcf;fill-opacity:1;fill-rule:nonzero;stroke:#3465a4;stroke-width:0.85782677;stroke-linecap:round;stroke-linejoin:round;stroke-miterlimit:0;stroke-opacity:1" />
    <path
       style="fill:#ef2929;fill-opacity:1;fill-rule:nonzero;stroke:#cc0000;stroke-width:0.85782677;stroke-linecap:round;stroke-linejoin:round;stroke-miterlimit:0;stroke-opacity:1"
       d="M 26.494315,19.243337 C 24.245396,19.231723 22.482624,18.809985 22.494315,21.87098 C 14.124987,36.412267 14.157018,34.494262 16.123569,36.401945 C 18.726433,38.926893 22.306815,29.12098 22.306815,29.12098 L 22.525565,41.649587 C 24.290849,41.912575 25.953797,42.087992 27.588065,42.212087 C 28.279834,42.264615 28.973052,42.309393 29.650565,42.337087 C 30.458525,42.373707 31.277098,42.399461 32.088065,42.399587 C 33.522216,42.394396 34.961649,42.331495 36.400565,42.212087 C 38.034834,42.087992 39.697781,41.912575 41.463065,41.649587 L 41.713065,29.12098 C 41.713065,29.12098 45.792248,38.166343 47.880686,36.401944 C 51.924993,32.985146 49.863643,36.412266 41.494315,21.87098 C 41.506787,18.605917 39.520474,18.985036 37.056815,19.274587 L 36.556815,19.274587 L 27.431815,19.274587 L 26.963065,19.274587 C 26.809086,19.25649 26.644243,19.244111 26.494315,19.243337 z "
       id="rect4102"
       sodipodi:nodetypes="ccsccssscccscccccc" />
    <path
       sodipodi:type="arc"
       style="fill:#fcaf3e;fill-opacity:1;fill-rule:nonzero;stroke:#f57900;stroke-width:1.2725594;stroke-linecap:round;stroke-linejoin:round;stroke-miterlimit:0;stroke-dasharray:none;stroke-opacity:1"
       id="path2160"
       sodipodi:cx="28.176889"
       sodipodi:cy="16.592592"
       sodipodi:rx="10.953034"
       sodipodi:ry="10.953034"
       d="M 39.129924 16.592592 A 10.953034 10.953034 0 1 1  17.223855,16.592592 A 10.953034 10.953034 0 1 1  39.129924 16.592592 z"
       transform="matrix(0.6902911,0,0,0.6902911,12.548166,1.6623541)" />
    <path
       style="fill:none;fill-rule:evenodd;stroke:#000000;stroke-width:0.30000001;stroke-linecap:butt;stroke-linejoin:round;marker-start:url(#CurveOut);marker-end:url(#CurveIn);stroke-miterlimit:4;stroke-dasharray:none;stroke-dashoffset:0;stroke-opacity:1"
       d="M 29.250841,16.086793 C 29.250841,16.086793 31.455116,18.332758 34.879661,16.086793"
       id="path6064"
       sodipodi:nodetypes="cc" />
    <path
       sodipodi:type="arc"
       style="fill:#eeeeec;fill-opacity:1;fill-rule:nonzero;stroke:#000000;stroke-width:0.30000001;stroke-linecap:round;stroke-linejoin:round;stroke-miterlimit:4;stroke-dasharray:none;stroke-dashoffset:0;stroke-opacity:1"
       id="path6273"
       sodipodi:cx="11.705533"
       sodipodi:cy="4.4690051"
       sodipodi:rx="1.4492564"
       sodipodi:ry="1.5607377"
       d="M 13.154789 4.4690051 A 1.4492564 1.5607377 0 1 1  10.256277,4.4690051 A 1.4492564 1.5607377 0 1 1  13.154789 4.4690051 z"
       transform="translate(22.596835,6.3039461)" />
    <path
       transform="translate(17.988943,6.3039461)"
       d="M 13.154789 4.4690051 A 1.4492564 1.5607377 0 1 1  10.256277,4.4690051 A 1.4492564 1.5607377 0 1 1  13.154789 4.4690051 z"
       sodipodi:ry="1.5607377"
       sodipodi:rx="1.4492564"
       sodipodi:cy="4.4690051"
       sodipodi:cx="11.705533"
       id="path6275"
       style="fill:#eeeeec;fill-opacity:1;fill-rule:nonzero;stroke:#000000;stroke-width:0.30000001;stroke-linecap:round;stroke-linejoin:round;stroke-miterlimit:4;stroke-dasharray:none;stroke-dashoffset:0;stroke-opacity:1"
       sodipodi:type="arc" />
    <path
       sodipodi:type="arc"
       style="fill:#000000;fill-opacity:1;fill-rule:nonzero;stroke:none;stroke-width:0.30000001;stroke-linecap:round;stroke-linejoin:round;stroke-miterlimit:4;stroke-dasharray:none;stroke-dashoffset:0;stroke-opacity:1"
       id="path7252"
       sodipodi:cx="11.705533"
       sodipodi:cy="4.4690051"
       sodipodi:rx="1.4492564"
       sodipodi:ry="1.5607377"
       d="M 13.154789 4.4690051 A 1.4492564 1.5607377 0 1 1  10.256277,4.4690051 A 1.4492564 1.5607377 0 1 1  13.154789 4.4690051 z"
       transform="matrix(0.6307282,0,0,0.6307282,22.311466,7.9542237)" />
    <path
       transform="matrix(0.6307282,0,0,0.6307282,26.919358,7.9542237)"
       d="M 13.154789 4.4690051 A 1.4492564 1.5607377 0 1 1  10.256277,4.4690051 A 1.4492564 1.5607377 0 1 1  13.154789 4.4690051 z"
       sodipodi:ry="1.5607377"
       sodipodi:rx="1.4492564"
       sodipodi:cy="4.4690051"
       sodipodi:cx="11.705533"
       id="path7254"
       style="fill:#000000;fill-opacity:1;fill-rule:nonzero;stroke:none;stroke-width:0.30000001;stroke-linecap:round;stroke-linejoin:round;stroke-miterlimit:4;stroke-dasharray:none;stroke-dashoffset:0;stroke-opacity:1"
       sodipodi:type="arc" />
    <path
       style="fill:none;fill-rule:evenodd;stroke:#cc0000;stroke-width:2;stroke-linecap:butt;stroke-linejoin:miter;stroke-miterlimit:4;stroke-dasharray:none;stroke-opacity:1"
       d="M 24.49134,26.907032 C 24.49134,26.907032 23.781018,32.487881 26.939729,32.417027 C 30.147989,32.346173 30.784145,28.407315 30.900641,27.650831"
       id="path2178"
       sodipodi:nodetypes="czc" />
    <path
       sodipodi:nodetypes="czc"
       id="path3151"
       d="M 38.832279,26.907032 C 38.832279,26.907032 39.542602,32.487881 36.38389,32.417027 C 33.17563,32.346173 32.539474,28.407315 32.422978,27.650831"
       style="fill:none;fill-rule:evenodd;stroke:#cc0000;stroke-width:2;stroke-linecap:butt;stroke-linejoin:miter;stroke-miterlimit:4;stroke-dasharray:none;stroke-opacity:1" />
    <path
       style="fill:#c17d11;fill-rule:evenodd;stroke:#8f5902;stroke-width:1px;stroke-linecap:butt;stroke-linejoin:miter;stroke-opacity:1"
       d="M 24.821857,6.4954823 C 28.490511,2.5975377 35.827818,2.5975377 39.496473,6.4954823 C 43.165127,10.393427 43.165127,23.358784 39.496473,27.256728 C 37.662146,29.205701 43.49864,6.3339361 31.658894,6.3339361 C 19.735768,6.3339361 26.656184,29.205701 24.821857,27.256728 C 21.153202,23.358784 21.153202,10.393427 24.821857,6.4954823 z "
       id="rect3157"
       sodipodi:nodetypes="czzzzz" />
  </g>
</svg>
