<?xml version="1.0" encoding="UTF-8" standalone="no"?>
<!-- Created with Inkscape (http://www.inkscape.org/) -->
<svg
   xmlns:dc="http://purl.org/dc/elements/1.1/"
   xmlns:cc="http://web.resource.org/cc/"
   xmlns:rdf="http://www.w3.org/1999/02/22-rdf-syntax-ns#"
   xmlns:svg="http://www.w3.org/2000/svg"
   xmlns="http://www.w3.org/2000/svg"
   xmlns:sodipodi="http://sodipodi.sourceforge.net/DTD/sodipodi-0.dtd"
   xmlns:inkscape="http://www.inkscape.org/namespaces/inkscape"
   width="64"
   height="64"
   id="svg2"
   sodipodi:version="0.32"
   inkscape:version="0.45"
   version="1.0"
   sodipodi:docname="stream-w.svg"
   sodipodi:docbase="/home/mark/projects/questar/trunk/data/tileset"
   inkscape:output_extension="org.inkscape.output.svg.inkscape"
   sodipodi:modified="true">
  <defs
     id="defs4" />
  <sodipodi:namedview
     id="base"
     pagecolor="#ffffff"
     bordercolor="#666666"
     borderopacity="1.0"
     gridtolerance="10000"
     guidetolerance="10"
     objecttolerance="10"
     inkscape:pageopacity="0.0"
     inkscape:pageshadow="2"
     inkscape:zoom="3.9525416"
     inkscape:cx="28.366214"
     inkscape:cy="30.53864"
     inkscape:document-units="px"
     inkscape:current-layer="layer1"
     showgrid="true"
     inkscape:window-width="922"
     inkscape:window-height="628"
     inkscape:window-x="51"
     inkscape:window-y="57"
     width="64px"
     height="64px" />
  <metadata
     id="metadata7">
    <rdf:RDF>
      <cc:Work
         rdf:about="">
        <dc:format>image/svg+xml</dc:format>
        <dc:type
           rdf:resource="http://purl.org/dc/dcmitype/StillImage" />
      </cc:Work>
    </rdf:RDF>
  </metadata>
  <g
     inkscape:label="Layer 1"
     inkscape:groupmode="layer"
     id="layer1"
     transform="translate(0,-860.36218)">
    <g
       id="g2208"
       transform="matrix(0,-1,1,0,-860.36218,924.36218)">
      <path
         style="fill:#204a87;fill-opacity:1;stroke:none;stroke-width:0.99999994;stroke-linecap:square;stroke-linejoin:round;stroke-miterlimit:4;stroke-dasharray:none;stroke-opacity:1"
         d="M 21.372322,890.65185 C 19.879473,894.70858 15.938037,904.72889 15.938037,911.46311 C 15.938037,918.18531 14.303932,917.64429 14.29795,924.36218 L 49.70205,924.36218 C 49.70205,919.83412 49.058884,921.47325 48.539296,917.12167 C 48.030268,912.85852 47.038134,905.9479 47.038134,903.29782 C 47.038134,897.85725 46.346213,888.40067 40.848207,883.52291 C 35.507889,878.78507 22.834081,886.67959 21.372322,890.65185 z "
         id="path2166"
         sodipodi:nodetypes="csccsszz" />
      <path
         sodipodi:nodetypes="csccsszz"
         id="rect3149"
         d="M 22.483337,892.62719 C 21.158828,896.22647 17.661842,905.11686 17.661842,911.0917 C 17.661842,917.05588 16.270168,918.40182 16.26486,924.36218 L 47.73514,924.36218 C 47.73514,920.34472 47.047866,919.97306 46.586869,916.11218 C 46.135241,912.32977 45.254984,906.19841 45.254984,903.84717 C 45.254984,899.02008 44.641084,890.62986 39.763053,886.30214 C 35.024929,882.09855 23.780265,889.10286 22.483337,892.62719 z "
         style="fill:#729fcf;fill-opacity:1;stroke:none;stroke-width:0.99999994;stroke-linecap:square;stroke-linejoin:round;stroke-miterlimit:4;stroke-dasharray:none;stroke-opacity:1" />
    </g>
  </g>
</svg>
